# xmcd
# 
# Track frame offsets:
#     150
#     19007
#     31443
#     44586
#     62691
#     77435
#     94253
#     108775
#     124137
#     141431
#     156198
#     173910
#     192072
#     207608
#     223728
#     236669
#     247539
#     259168
#     270688
# 
# Disc length: 3804
# 
# Revision: 6
# Processed by: cddbd v1.5.2PL0 Copyright (c) Steve Scherf et al.
# Submitted via: fre:ac v1.0.31
# 
DISCID=0d0eda13
DTITLE=Various Artist - The Real... Dolly Parton Disc 3
DYEAR=2013
DGENRE=Folk/Country
TTITLE0=Dolly Parton and Kenny Rogers - Islands in the Stream
TTITLE1=Dolly Parton - 9 to 5
TTITLE2=Dolly Parton - I Will Always Love You
TTITLE3=Dolly Parton - The House of the Rising Sun
TTITLE4=Dolly Parton - Working Girl
TTITLE5=Dolly Parton - Single Woman
TTITLE6=Dolly Parton - Heartbreak Express
TTITLE7=Dolly Parton - Tennessee Homesick Blues
TTITLE8=Dolly Parton - Save the Last Dance for Me
TTITLE9=Dolly Parton - Don't Call It Love
TTITLE10=Dolly Parton - Yellow Roses
TTITLE11=Dolly Parton - Do I Ever Cross Your Mind
TTITLE12=Dolly Parton and Ricky Van Shelton - Rockin' Years
TTITLE13=Dolly Parton - Romeo
TTITLE14=Dolly Parton - It Wasn't God Who Made Honky Tonk Angels
TTITLE15=Dolly Parton - Silver Threads and Golden Needles
TTITLE16=Dolly Parton - Wings of a Dove
TTITLE17=Dolly Parton - Why'd You Come in Here Lookin' Like That
TTITLE18=Dolly Parton - More Where That Came From
EXTD=YEAR: 2013
EXTT0=
EXTT1=
EXTT2=
EXTT3=
EXTT4=
EXTT5=
EXTT6=
EXTT7=
EXTT8=
EXTT9=
EXTT10=
EXTT11=
EXTT12=
EXTT13=
EXTT14=
EXTT15=
EXTT16=
EXTT17=
EXTT18=
PLAYORDER=
